<svg version="1.2" xmlns="http://www.w3.org/2000/svg" viewBox="0 0 1822 2051" width="1822" height="2051">
	<title>ISO_C++_Logo</title>
	<style>
		.s0 { fill: #659ad2 } 
		.s1 { fill: #00599c } 
		.s2 { fill: #004482 } 
		.s3 { fill: #ffffff } 
	</style>
	<g id="Path 2">
		<path id="Path 0" class="s0" d="m884 1c-3.6 0.5-11.2 2-17 3.5-5.8 1.5-13 3.6-16 4.7-3 1.1-11.6 5.5-19 9.6-7.4 4.2-45.9 26.1-85.5 48.8-39.6 22.7-82.1 47-94.5 54.2-12.4 7.1-33.3 19.1-46.5 26.7-13.2 7.6-37.3 21.4-53.5 30.8-16.2 9.3-39 22.5-50.5 29.2-11.6 6.7-41.9 24.3-67.5 39-25.6 14.8-56.4 32.5-68.5 39.5-12.1 7-33.9 19.6-48.5 28-14.6 8.4-34.8 20.1-45 26-10.2 5.8-48.4 27.9-85 48.9-36.6 21.1-73 42.2-81 46.8-8 4.7-20.1 12-27 16.2-6.8 4.2-16.3 11-21 15.2-4.7 4.1-11.4 10.9-15 15-3.6 4.2-9.8 12.5-13.8 18.5-4.1 6-9.8 15.9-12.7 21.9-2.9 6-7 15.7-9 21.5-2 5.8-4.5 14-5.5 18.3-2 7.6-2 14.7-2 460.4v452.8c4 17.8 7.2 28.2 9.7 34.5 2.5 6.3 6.3 15 8.4 19.3 2.2 4.2 4 7.7 4.2 7.7 0.1 0 18.6-10.6 41.2-23.6 22.6-13 47.1-27.1 54.5-31.4 7.4-4.3 30.8-17.8 52-30.1 21.2-12.2 52.9-30.5 70.5-40.7 17.6-10.2 40.8-23.6 51.5-29.7 10.7-6.2 29.6-17 42-24.2 12.4-7.1 38-21.9 57-32.8 19-10.9 56.1-32.3 82.5-47.5 26.4-15.2 58.4-33.7 71-41 12.6-7.3 33.4-19.2 46-26.5 12.6-7.3 28.2-16.3 34.5-20 6.3-3.7 25.5-14.8 42.5-24.7 17-9.9 41.4-24 54-31.3 12.6-7.3 37.6-21.7 55.5-32 17.9-10.3 53.9-31.1 80-46.3 26.1-15.1 60.5-35 76.5-44.2 16-9.2 40.7-23.5 55-31.7 14.3-8.3 40.6-23.5 58.5-33.8 17.9-10.3 62-35.7 98-56.3 36-20.6 73.4-42.1 83-47.7 9.6-5.6 56.7-32.9 104.5-60.5 47.8-27.7 94.9-54.9 104.5-60.5 9.6-5.6 30.8-17.8 47-27.2 16.2-9.4 43.7-25.3 61-35.3 17.3-10 37.8-21.8 45.5-26.3 7.7-4.4 24.6-14.2 37.5-21.7 12.9-7.5 35.7-20.7 50.5-29.3 14.8-8.5 36.9-21.2 49-28.2 12.1-7 33.1-19 46.8-26.8 13.6-7.8 24.7-14.7 24.7-15.2 0-0.6-2.5-4.6-5.4-9-3-4.4-8.3-11.6-11.8-16-3.6-4.4-10.3-11.5-14.9-15.8-4.6-4.3-10.6-9.3-13.4-11.1-2.7-1.9-17.4-10.5-32.5-19.3-15.1-8.8-57.4-33.4-94-54.5-36.6-21.2-82.5-47.7-102-59-19.5-11.3-55.3-32-79.5-46-24.2-14-65.4-37.8-91.5-52.8-26.1-15-67.8-39-92.5-53.3-24.7-14.3-61.4-35.5-81.5-47-20.1-11.5-48.7-28-63.5-36.5-14.8-8.5-50.2-28.8-78.5-45-28.3-16.2-54.9-31.2-59-33.3-4.1-2.1-12.2-5.1-18-6.8-5.8-1.6-14.5-3.7-19.5-4.6-6.4-1.1-15-1.5-30-1.4-11.5 0.1-23.9 0.5-27.5 0.9z"/>
		<path id="Path 1" class="s1" d="m1773 527.3c-13.5 7.8-34.7 20-47 27.1-12.4 7.1-32.6 18.7-45 25.9-12.4 7.1-34.7 20-49.5 28.7-14.8 8.6-33.3 19.3-41 23.7-7.7 4.5-28.2 16.3-45.5 26.3-17.3 10-44.8 25.9-61 35.3-16.2 9.4-34.7 20.1-41 23.7-6.3 3.7-55.8 32.4-110 63.7-54.2 31.4-111.8 64.7-128 74-16.2 9.4-58.5 33.7-94 54.1-35.5 20.3-78.5 45-95.5 54.9-17 9.8-47.3 27.3-67.2 38.9l-36.2 20.9c12.7 7.6 33.7 20 54.9 32.4 21.2 12.5 46.4 27.2 56 32.8 9.6 5.5 29.4 17 44 25.4 14.6 8.4 42.5 24.6 62 35.9 19.5 11.4 54 31.3 76.5 44.2 22.5 13 51.3 29.5 64 36.8 12.7 7.3 45.7 26.4 73.5 42.5 27.8 16.1 72.5 42 99.5 57.5 27 15.6 54.8 31.7 62 35.8 7.2 4.1 20 11.6 28.5 16.5 8.5 4.9 30.8 17.7 49.5 28.5 18.7 10.7 57.2 32.9 85.5 49.2 28.3 16.4 65.7 37.9 83 48 17.3 10 35.3 20.5 40 23.2 4.7 2.7 8.6 4.8 8.6 4.6 0.1-0.2 1.7-3.5 3.7-7.3 1.9-3.8 5.1-10.9 7.1-15.7 2-4.9 5-13.4 6.7-19l3.2-10.3c1.3-225.5 1.3-432.5 0.8-605.5l-0.8-314.5c-4.1-13.9-6.9-22-8.8-27-2-4.9-5.5-12.6-7.8-16.9-2.3-4.4-4.7-8.1-5.2-8.2-0.5-0.1-12 6.2-25.5 13.9z"/>
		<path id="Path 2" class="s2" d="m907.5 1027c-1.6 1-24.4 14.1-50.5 29.2-26.1 15.2-62.1 36-80 46.3-17.9 10.3-42.9 24.7-55.5 32-12.6 7.3-37 21.4-54 31.3-17 9.9-36.2 21-42.5 24.7-6.3 3.7-21.9 12.7-34.5 20-12.6 7.3-33.4 19.2-46 26.5-12.6 7.3-44.6 25.8-71 41-26.4 15.2-63.5 36.6-82.5 47.5-19 10.9-44.6 25.7-57 32.8-12.4 7.2-31.3 18-42 24.2-10.7 6.1-33.9 19.5-51.5 29.7-17.6 10.2-49.3 28.5-70.5 40.7-21.2 12.3-44.6 25.8-52 30.1-7.4 4.3-31.3 18-53 30.5-21.7 12.5-40.1 23.3-40.8 23.9-0.9 0.9 0.2 3.2 5.2 10.6 3.5 5.2 9.8 13.3 13.9 18 4 4.7 11.2 11.8 15.8 15.9 4.6 4.1 11.3 9.4 14.9 11.7 3.6 2.3 24.9 14.8 47.5 27.9 22.6 13.1 60.6 35.1 84.5 49 23.9 13.9 53.2 30.8 65 37.7 11.8 6.8 36.6 21.1 55 31.8 18.4 10.6 42.9 24.8 54.5 31.5 11.6 6.6 32 18.5 45.5 26.2 13.5 7.7 33.5 19.2 44.5 25.5 11 6.3 36.6 21 57 32.8 20.4 11.7 54.1 31.2 75 43.3 20.9 12 44.1 25.4 51.5 29.7 7.4 4.3 30.1 17.4 50.5 29.1 20.4 11.7 59.7 34.3 87.5 50.2 27.8 15.9 52.7 29.8 55.5 30.9 2.7 1.1 8.8 3.1 13.5 4.5 4.7 1.4 13.5 3.4 19.5 4.5 6 1.1 17.3 2.2 25 2.5 8.6 0.4 17.3 0.1 22.5-0.6 4.7-0.6 13.2-2.1 19-3.3 5.8-1.1 14.3-3.3 19-4.8 4.7-1.5 12.1-4.5 16.5-6.7 4.4-2.2 14.1-7.5 21.5-11.8 7.4-4.2 24.1-13.8 37-21.3 12.9-7.4 33.6-19.3 46-26.5 12.4-7.1 28.3-16.4 35.5-20.5 7.2-4.1 33.5-19.3 58.5-33.7 25-14.4 49.8-28.7 55-31.7 5.2-3 34.7-20 65.5-37.8 30.8-17.7 62.3-36 70-40.5 7.7-4.5 55-31.9 105-60.8 50-28.8 108.3-62.5 129.5-74.7 21.2-12.2 45.2-26.1 53.5-30.9 8.2-4.8 21.3-12.4 29-16.8 7.7-4.5 25-14.5 38.5-22.3 16.5-9.6 27.3-16.6 32.9-21.4 4.6-3.9 11.4-10.3 15-14.2 3.6-3.8 9.8-11.5 13.7-17 3.9-5.4 7.9-11.1 8.8-12.6 1.5-2.7 1.5-2.9-0.7-4.2-1.2-0.7-4.9-2.9-8.2-4.9-3.3-1.9-20.2-11.7-37.5-21.7-17.3-10.1-54.7-31.6-83-48-28.3-16.3-66.8-38.5-85.5-49.2-18.7-10.8-41-23.6-49.5-28.5-8.5-4.9-21.3-12.4-28.5-16.5-7.2-4.1-35-20.2-62-35.8-27-15.5-71.7-41.4-99.5-57.5-27.8-16.1-60.8-35.2-73.5-42.5-12.7-7.3-41.5-23.8-64-36.8-22.5-12.9-57-32.8-76.5-44.2-19.5-11.3-47.4-27.5-62-35.9-14.6-8.4-35.5-20.5-46.5-26.9-11-6.3-35.3-20.5-54-31.5-18.7-11-38.3-22.6-43.5-25.8-5.2-3.2-10.2-5.8-11-5.8-0.8 0-2.9 0.9-4.5 1.9z"/>
		<path id="Path 0" fill-rule="evenodd" class="s3" d="m1172.5 778h91l-0.5 382.5-3.7 0.7c-2.1 0.4-20.7 0.8-41.3 0.8-20.6 0-39.2-0.4-45-1.5v-14c0-10-0.3-14.4-1.2-15.3-0.7-0.7-1.8-1.2-2.3-1.2-0.5 0-5.8 4.7-11.8 10.5-5.9 5.8-11.3 10.5-12 10.5-0.6-0.1-1.9 0.7-2.7 1.6-0.8 0.9-4.9 3.2-9 5-4.1 1.9-8.7 4.1-10.3 4.9-1.5 0.8-4.2 1.5-6 1.5-1.7 0-4.3 0.8-5.7 1.7-2.2 1.6-5.3 1.8-26.5 1.7-20.6-0.1-24.4-0.3-26.5-1.8-1.4-0.9-4.1-1.6-6-1.6-1.9 0-5.3-0.9-7.5-2-2.2-1.1-4.5-2-5-2-0.5 0-3.7-1.4-7-3.1-3.3-1.7-7.6-4.4-9.5-5.9-1.9-1.5-4.9-3.4-6.5-4.3-1.6-0.9-6.7-5.3-11.2-9.9-4.5-4.6-11.1-12.7-14.7-18-3.6-5.4-6.6-10.4-6.6-11 0-0.7-0.6-2.2-1.5-3.3-0.8-1.1-1.4-2.7-1.4-3.5 0-0.8-0.9-2.7-2.1-4.2-1.1-1.6-2-3.6-2-4.5 0-1-0.6-2.7-1.5-3.8-0.8-1.1-1.4-2.9-1.5-4 0-1.1-0.6-2.9-1.5-4-0.8-1.1-1.4-4.2-1.5-7 0-2.9-0.8-6.5-1.8-8.5-1.4-2.5-2.1-6.6-2.5-14-0.3-5.8-1-11.7-1.6-13.3-0.6-1.5-1.1-8.1-1.1-14.7 0-6.6 0.5-13.2 1.1-14.8 0.6-1.5 1.3-7.4 1.6-13.2 0.4-7.4 1.1-11.5 2.5-14 1-2 1.8-5.5 1.8-8.3 0-2.6 0.8-6.2 1.7-7.9 0.9-1.8 2.2-4.5 3-6 0.7-1.6 1.3-3.5 1.3-4.3 0-0.8 0.9-2.7 2-4.2 1.2-1.6 2-3.5 2-4.3 0-0.8 1-3.4 2.2-5.7 1.3-2.2 4-6.7 6.2-10 2.1-3.2 5-7.5 6.5-9.7 1.4-2.1 6.5-7.9 11.4-12.7 4.8-4.9 9.3-8.9 10-8.9 0.6 0.1 1.9-0.7 2.7-1.6 0.8-0.9 3.5-2.7 6-4.1 2.5-1.3 6.5-3.5 9-4.9 2.5-1.3 5.4-2.4 6.5-2.4 1.1 0 2.9-0.6 4-1.5 1.1-0.8 3-1.5 4.2-1.5 1.3 0 4-0.9 6-2 3.5-1.9 5.6-2 27.8-2 22.2 0 24.2 0.2 27 2 1.7 1.1 4.2 2 5.7 2 1.6 0 4.3 0.8 6 1.7 1.8 0.9 4.5 2.2 6 3 1.6 0.7 3.4 1.3 4 1.3 0.7 0 2.1 0.9 3 2 1 1.1 2.4 2 3 2 0.7 0 3.3 1.6 5.8 3.5 2.5 2 4.8 3.6 5.2 3.5 0.5 0 5.1 4 10.3 9 5.9 5.6 10.1 8.8 11 8.5 1.3-0.4 1.5-9 1.2-70zm-82 171.8c-4.4 2.4-9.4 5.8-11.2 7.9-1.8 2.1-4.7 5.8-6.6 8.3-1.8 2.5-4.3 6.4-5.5 8.8-1.2 2.3-2.2 5.3-2.2 6.7 0 1.4-0.9 3.7-2 5.3-1.6 2.1-2 4.2-2 9.2 0.1 3.6-0.4 7-1 7.5-0.6 0.6-1.3 6.6-1.6 13.5-0.3 7.7-0.1 15.2 0.6 19.5 0.7 3.9 1.5 10.5 1.9 14.8 0.5 6 1.1 8.1 2.4 8.8 1.1 0.6 1.7 2.1 1.7 4.2 0 1.7 0.6 4.1 1.4 5.2 0.7 1.1 1.6 3.2 2 4.8 0.4 1.5 1.1 2.7 1.6 2.7 0.6 0 1 0.8 1 1.8 0 0.9 2.4 4.3 5.3 7.4 2.9 3.1 7.3 7 9.7 8.7 2.5 1.7 5.2 3.1 6 3.1 0.9 0 2.5 0.7 3.5 1.5 1.1 0.9 3.6 1.5 5.5 1.5 2 0 5.6 0.5 8 1.1 3.3 0.8 7.3 0.7 14-0.1 5.3-0.6 10.8-1.8 12.3-2.6 1.5-0.8 3.3-1.4 4-1.4 0.7 0 3.5-1.6 6.2-3.4 2.8-1.9 7.2-5.8 9.8-8.7 2.7-3 4.8-6.2 4.8-7.1 0-1 0.4-1.8 0.9-1.8 0.6 0 1.3-1.2 1.7-2.7 0.4-1.6 1.3-3.7 2-4.8 0.8-1.1 1.4-2.7 1.4-3.5 0-0.8 0.7-2.8 1.6-4.5 0.9-1.6 2-5.9 2.4-9.5 0.4-3.6 1.3-9 2-12 0.7-3.3 1-11.5 0.8-20.7-0.2-10.5-0.7-15.6-1.6-16.5-0.8-0.8-1.3-3.9-1.3-8 0-4.5-0.4-7.2-1.3-8-0.7-0.7-1.7-2.9-2.1-4.8-0.5-1.9-1.9-5.5-3.2-8-1.3-2.5-4-6.7-6-9.5-1.9-2.7-4.7-6.3-6.2-7.8-1.4-1.6-6.7-4.8-11.7-7.2-7.8-3.8-10-4.4-17-4.7-4.4-0.2-11.5 0-16 0.3-6.7 0.5-9.2 1.2-16 4.7zm264.6-64.6c21.1-0.1 40.1 0.2 42.2 0.6 2.4 0.4 3.8 1.3 3.8 2.2-0.1 0.8 0.6 2.4 1.4 3.5 0.8 1.1 1.5 2.9 1.5 4 0 1.1 0.7 2.9 1.5 4 0.8 1.1 1.5 3.2 1.5 4.8 0 1.5 1 3.5 2.1 4.5 1.1 0.9 2 2.6 1.9 3.7 0 1.1 0.7 2.9 1.5 4 0.8 1.1 1.5 3.1 1.5 4.5 0 1.4 0.7 3.4 1.4 4.5 0.8 1.1 1.7 3.4 2 5 0.3 1.7 1.3 3.7 2.2 4.5 0.8 0.8 1.5 2.4 1.5 3.5-0.1 1.1 0.6 2.9 1.4 4 0.8 1.1 1.5 3 1.5 4.3 0 1.2 1.6 5.2 3.6 9 1.9 3.7 3.5 7.5 3.5 8.5 0 0.9 0.5 2.9 1.3 4.5 0.7 1.5 2.3 4.6 3.5 7 1.2 2.3 2.1 5 2.1 6 0 0.9 0.7 2.6 1.5 3.7 0.8 1.1 1.5 2.9 1.5 4 0 1.1 0.7 2.9 1.5 4 0.8 1.1 1.5 3.2 1.5 4.8 0 1.5 0.8 3.5 1.8 4.4 1 0.9 2.3 3.3 3.1 5.2 0.7 2 1.7 5.4 2.1 7.6 0.5 2.2 1.4 4.1 2 4.3 0.6 0.1 1.1 1.2 1.1 2.5 0 1.2 0.9 3.6 1.9 5.2 1.1 1.7 2 3.9 2 5 0 1.1 0.7 2.9 1.5 4 0.8 1.1 1.5 2.8 1.5 3.8 0 0.9 0.6 2.9 1.4 4.5 0.7 1.5 2.3 4.6 3.5 7 1.2 2.3 2.1 4.9 2.1 5.7 0 0.8 0.8 2.9 1.8 4.5 1.2 2.1 2.4 3 3.7 2.8 1.4-0.2 2.2-1.2 2.4-3.3 0.2-1.6 1-3.9 1.8-5 0.7-1.1 1.4-3.3 1.4-5 0-1.6 0.7-3.9 1.5-5 0.8-1.1 1.5-3.2 1.5-4.7 0-1.6 0.9-4 2-5.5 1.1-1.6 2-3.9 2-5.3 0-1.4 0.7-3.4 1.5-4.5 0.8-1.1 1.5-3.3 1.5-5 0-1.6 0.7-3.9 1.5-5 0.8-1.1 1.5-3.1 1.5-4.5 0-1.4 0.9-3.8 1.9-5.5 1.1-1.6 2.1-4.1 2.1-5.5 0-1.4 0.7-3.4 1.5-4.5 0.8-1.1 1.5-3.2 1.5-4.7 0-1.6 0.6-3.8 1.4-5 0.7-1.3 1.7-3.9 2.1-5.8 0.4-1.9 1.3-4.4 2.1-5.5 0.7-1.1 1.4-3.1 1.4-4.5 0-1.4 0.7-3.4 1.5-4.5 0.8-1.1 1.5-3 1.5-4.2 0-1.3 0.9-4 2-6 1.1-2.1 2-4.9 2-6.3 0-1.4 0.7-3.4 1.5-4.5 0.8-1.1 1.5-3.1 1.5-4.5 0-1.4 0.7-3.4 1.5-4.5 0.8-1.1 1.5-3 1.5-4.2 0-1.3 0.8-3.8 1.9-5.5 1.1-1.8 2.1-4.4 2.1-5.8 0-1.4 0.7-3.4 1.5-4.5 0.8-1.1 1.5-3.3 1.5-5 0-1.6 0.7-3.9 1.5-5 0.8-1.1 1.5-3.1 1.5-4.5-0.1-1.4 0.7-3.6 1.7-5 0.9-1.4 1.9-4.1 2.2-6 0.4-2.3 1.3-3.8 3-4.7 1.9-1 12.2-1.3 42-1.3 21.8 0 41.2 0.4 43.3 0.8 2.1 0.4 3.8 1.3 3.8 2 0 0.6-0.5 1.2-1.1 1.2-0.5 0-1.2 1.2-1.6 2.8-0.3 1.5-1.1 3.3-1.7 4.1-0.6 0.8-1.5 3.1-1.8 5-0.4 2-1.3 5.2-2 7.1-0.8 1.9-2.1 4.6-3.1 6-1 1.4-1.8 3.6-1.7 5 0 1.4-0.5 3-1 3.5-0.6 0.6-1.5 2.6-2 4.5-0.5 1.9-1.5 5.1-2.2 7-0.8 1.9-2.1 4.6-3.1 6-1 1.4-1.8 3.6-1.8 5 0 1.4-0.7 3.4-1.5 4.5-0.8 1.1-1.5 2.7-1.5 3.5 0.1 0.8-0.8 3.3-2 5.5-1.1 2.2-2 4.6-2 5.3 0 0.6-0.6 1.9-1.5 2.7-0.8 0.8-1.5 2.6-1.5 4 0 1.4-0.7 4.2-1.6 6.3-0.9 2-2.5 5.5-3.5 7.7-1 2.2-1.8 4.7-1.9 5.5 0 0.8-0.7 2.4-1.5 3.5-0.8 1.1-1.5 2.9-1.5 4 0 1.1-0.7 2.9-1.5 4-0.8 1.1-1.5 2.8-1.5 3.8 0 0.9-0.9 2.9-2 4.5-1.1 1.5-2 3.8-2 5.2 0 1.4-0.7 3.4-1.5 4.5-0.8 1.1-1.5 2.9-1.5 4 0 1.1-0.7 2.9-1.5 4-0.8 1.1-1.5 2.9-1.5 4 0 1.1-0.9 3.4-2 5-1 1.7-2 3.9-2 5 0 1.1-0.7 2.9-1.5 4-0.8 1.1-1.5 2.9-1.5 4 0 1.1-0.9 4-2 6.5-1.2 2.5-2.7 5.7-3.5 7.3-0.8 1.5-1.5 3.5-1.5 4.5 0 0.9-0.7 2.6-1.5 3.7-0.8 1.1-1.5 3-1.5 4.3 0 1.2-0.9 3.4-2 5-1.1 1.5-2 3.6-2 4.7 0 1.1-0.7 2.9-1.5 4-0.8 1.1-1.5 2.9-1.5 4 0 1.1-0.7 2.9-1.5 4-0.8 1.1-1.5 3-1.5 4.3 0 1.2-0.9 3.4-2 5-1.1 1.5-2 3.6-2 4.7 0 1.1-0.7 2.9-1.5 4-0.8 1.1-1.5 3-1.5 4.3 0 1.2-0.7 3.7-1.6 5.5-0.9 1.7-2.5 4.9-3.5 7-1 2-1.9 4.5-1.9 5.5 0 0.9-0.7 2.6-1.5 3.7-0.8 1.1-1.5 3.1-1.5 4.5 0 1.4-0.7 3.4-1.5 4.5-0.8 1.1-1.5 2.7-1.4 3.5 0 0.8-0.9 2.6-2.1 4-1.1 1.4-2 3.9-2 5.5 0 1.7-0.7 3.9-1.5 5-0.8 1.1-1.5 2.7-1.5 3.5 0 0.8-0.9 3.5-2 6-1.2 2.5-2.6 5.4-3.2 6.5-0.6 1.1-1.4 3.4-1.8 5-0.5 1.7-1.4 4.6-2.1 6.5-0.8 1.9-2.1 4.6-3.1 6-1 1.4-1.8 3.3-1.8 4.3 0 0.9-0.4 1.7-1 1.7-0.5 0-1.3 1.2-1.6 2.8-0.4 1.5-1.7 4.3-2.8 6.4-1.1 2-3.4 5.8-5 8.5-1.6 2.6-4.4 6.5-6.2 8.6-1.8 2-3.4 4.2-3.4 4.7 0 0.6-2.7 3.7-6 7-3.2 3.3-7.9 7.2-10.2 8.7-2.3 1.5-5.8 3.5-7.8 4.5-1.9 1-4.1 1.8-5 1.8-0.8 0-2.6 0.9-4 2-1.3 1.1-3.4 2.1-4.5 2.1-1 0-3.1 0.6-4.5 1.4-1.3 0.8-4.7 1.4-7.5 1.5-2.7 0-6.4 0.3-8.2 0.7-1.8 0.5-3.3 1.4-3.3 2.1 0 0.9-7.2 1.2-65.5 1.2l0.5-60 19-0.2c13.5-0.2 19.3-0.7 20.2-1.5 0.7-0.7 3.3-1.3 5.8-1.3 2.7 0 6.4-1 8.9-2.3 2.5-1.2 6.8-4.6 9.8-7.4 2.9-2.9 5.6-6.3 6-7.5 0.3-1.3 1.5-3.4 2.5-4.8 1.1-1.4 1.9-3.6 1.9-5 0-1.4 0.7-3.4 1.5-4.5 0.8-1.1 1.5-3.2 1.5-4.7 0-1.6-0.7-4-1.5-5.5-0.8-1.6-2.4-5-3.5-7.8-1.2-2.7-2.9-6.6-3.7-8.5-0.9-1.9-2.1-4.8-2.9-6.5-0.7-1.6-2.2-5.2-3.4-8-1.2-2.7-2.8-6.2-3.6-7.7-0.8-1.6-1.5-3.5-1.5-4.3 0-0.8-0.8-3.2-1.8-5.2-1.1-2.1-2.6-5.5-3.5-7.5-0.9-2.1-2.4-5.5-3.3-7.5-0.8-2.1-2.3-5.6-3.3-7.8-1-2.2-2.5-5.7-3.4-7.7-0.9-2.1-2.4-5.5-3.2-7.5-0.9-2.1-2.5-5.5-3.5-7.5-1.1-2.1-2-4.5-2-5.3 0-0.8-0.6-2.7-1.3-4.2-0.7-1.6-3-6.2-5-10.3-2-4.1-3.7-8.1-3.7-8.7 0-0.7-0.6-2.5-1.4-4-0.7-1.6-3-6.3-5-10.5-1.9-4.3-3.6-8.5-3.6-9.3 0-0.8-0.6-2.7-1.3-4.2-0.8-1.6-1.9-3.9-2.6-5.3-0.6-1.4-2.2-4.5-3.5-7-1.4-2.5-2.5-5.3-2.5-6.2 0-1-0.7-3-1.4-4.5-0.8-1.6-1.9-3.9-2.5-5.3-0.6-1.4-1.5-3.2-2-4-0.4-0.8-1.6-3-2.5-4.7-0.9-1.8-1.7-4.4-1.7-5.8 0-1.4-0.6-3.2-1.5-4-0.8-0.8-1.4-1.8-1.4-2.2 0-0.5-1.6-4.1-3.5-8-2-4-3.6-8-3.6-8.8 0-0.8-1.6-4.8-3.5-8.7-2-4-4.3-8.5-5-10-0.8-1.6-1.5-3.9-1.5-5.3 0-1.4-0.9-3.3-2-4.2-1.1-1-2-2.4-2-3 0-0.7-0.5-2.5-1.3-4-0.7-1.6-2.1-4.3-3-6-0.9-1.8-1.6-4.3-1.6-5.5 0-1.3-0.9-3.5-2-5-1.1-1.6-2-3.4-2-4 0-0.7-0.7-2.2-1.5-3.3-0.8-1.1-1.5-3-1.5-4.2 0-1.8 0.6-2.4 2.7-2.7 1.5-0.1 20.1-0.4 41.2-0.4zm-1020.8-93.2h111.3l2.3 3c1.2 1.6 2.2 4 2.2 5.3 0 1.2 0.7 3.1 1.5 4.2 0.8 1.1 1.5 3 1.5 4.3 0 1.2 0.9 3.9 1.9 6 1 2 2.6 5.2 3.5 7 0.9 1.7 1.6 4.2 1.6 5.5 0 1.2 0.7 3.1 1.5 4.2 0.8 1.1 1.5 3.1 1.5 4.5 0 1.4 0.9 3.7 2 5.3 1.1 1.5 2 3.7 2 5 0 1.2 0.7 3.1 1.5 4.2 0.8 1.1 1.5 2.9 1.5 4 0 1.1 0.7 2.9 1.5 4 0.8 1.1 1.5 3.1 1.5 4.5 0 1.4 0.9 3.7 2 5.3 1.1 1.5 2 3.7 2 5 0 1.2 0.7 3.1 1.5 4.2 0.8 1.1 1.5 2.9 1.5 4 0 1.1 0.7 2.9 1.5 4 0.8 1.1 1.5 3.1 1.5 4.5 0 1.4 0.9 3.7 2 5.3 1.1 1.5 2 3.7 2 5 0 1.2 0.7 3.1 1.5 4.2 0.8 1.1 1.5 2.9 1.5 4 0 1.1 0.7 2.9 1.5 4 0.8 1.1 1.5 2.7 1.5 3.5 0 0.8 0.9 3.3 2 5.5 1.2 2.2 2.1 4.9 2 6 0 1.1 0.7 2.9 1.5 4 0.8 1.1 1.5 2.9 1.5 4 0 1.1 1 3.4 2 5 1.1 1.7 2 3.9 2 5 0 1.1 0.7 2.9 1.5 4 0.8 1.1 1.5 3.1 1.5 4.5 0 1.4 0.7 3.4 1.5 4.5 0.8 1.1 1.5 3.1 1.5 4.5 0 1.4 0.9 3.7 2 5.3 1.1 1.5 2 3.5 2 4.5 0 0.9 0.7 2.6 1.5 3.7 0.8 1.1 1.5 3.1 1.5 4.5 0 1.4 0.7 3.4 1.5 4.5 0.8 1.1 1.5 3.1 1.5 4.5 0 1.4 0.9 3.7 2 5.3 1.1 1.5 2 3.5 2 4.5 0 0.9 0.7 2.6 1.5 3.7 0.8 1.1 1.5 3.1 1.5 4.5 0 1.4 0.7 3.4 1.5 4.5 0.8 1.1 1.5 2.7 1.5 3.5 0 0.8 0.9 3.3 2 5.5 1.2 2.2 2.1 4.7 2 5.5 0 0.8 0.7 2.4 1.5 3.5 0.8 1.1 1.5 3 1.5 4.3 0 1.2 1 3.9 2.1 6 1.1 2 1.9 4.4 1.9 5.2 0 0.8 0.7 2.4 1.5 3.5 0.8 1.1 1.5 3.1 1.5 4.5 0 1.4 0.7 3.4 1.5 4.5 0.8 1.1 1.5 2.9 1.5 4 0 1.1 1 3.4 2 5 1.1 1.7 2 3.9 2 5 0 1.1 0.7 2.9 1.5 4 0.8 1.1 1.5 3.1 1.5 4.5 0 1.4 0.7 3.4 1.5 4.5 0.8 1.1 1.5 2.9 1.5 4 0 1.1 1 3.4 2 5 1.1 1.7 2 3.9 2 5 0 1.1 0.7 2.9 1.5 4 0.8 1.1 1.5 3.1 1.5 4.5 0 1.4 0.7 3.4 1.5 4.5 0.8 1.1 1.5 2.9 1.5 4 0 1.1 1 3.4 2 5 1.1 1.7 2 3.9 2 5 0 1.1 0.7 2.9 1.5 4 0.8 1.1 1.5 3.1 1.5 4.5 0 1.4 0.7 3.4 1.5 4.5 0.8 1.1 1.5 2.7 1.5 3.5 0.1 0.8 0.9 3.3 1.9 5.5 1 2.2 2.3 5.6 3 7.5 0.8 2.4 0.8 3.8 0.1 4.5-0.7 0.6-17.6 1.1-45.2 1.3-27.8 0.2-45.6-0.1-47.8-0.7-3-0.9-3.7-1.7-5.2-6.3-1-2.9-2.3-7.1-2.8-9.3-0.5-2.2-1.3-4.4-1.9-5-0.6-0.5-1.1-2.3-1-4 0-1.6-0.9-4.2-2-5.7-1.1-1.6-2-3.8-2-5 0-1.3-0.7-3.2-1.5-4.3-0.8-1.1-1.5-3.3-1.5-5 0-1.6-0.6-3.9-1.4-5-0.8-1.1-1.6-3.6-2-5.5-0.3-1.9-1.1-4-1.9-4.6-0.7-0.7-1.6-2.6-2.8-7.4h-73.5c-64.4 0-73.5 0.2-74 1.5-0.2 0.8-0.5 2.7-0.5 4.3 0 1.5-0.7 3.6-1.5 4.7-0.8 1.1-1.5 3.1-1.5 4.5 0 1.4-0.7 3.4-1.5 4.5-0.8 1.1-1.5 2.9-1.5 4 0 1.1-0.9 3.4-2 5-1 1.7-2 4.1-2 5.5 0 1.4-0.7 3.4-1.5 4.5-0.8 1.1-1.5 3.1-1.5 4.5 0 1.4-0.7 3.4-1.5 4.5-0.8 1.1-1.5 3.1-1.4 4.5 0 1.4-0.9 3.6-2.1 5-1.1 1.4-2 3.9-2 5.8 0 2.8-0.4 3.3-3.2 4.2-2 0.6-19.9 1-46.8 1-32.1-0.1-44-0.4-45.7-1.3-1.6-0.9-1.9-1.6-1.2-2.7 0.5-0.8 0.9-2.6 1-4 0-1.4 0.7-3.4 1.5-4.5 0.8-1.1 1.5-3 1.5-4.2 0-1.3 0.9-3.5 2-5 1.1-1.6 2-3.9 2-5.3 0-1.4 0.7-3.4 1.5-4.5 0.8-1.1 1.5-2.9 1.5-4 0-1.1 0.7-2.9 1.5-4 0.8-1.1 1.5-3.1 1.5-4.5-0.1-1.4 0.8-3.3 1.9-4.2 1.3-1.1 2.1-3.1 2.1-5 0-1.8 0.7-4.2 1.5-5.3 0.8-1.1 1.5-2.9 1.5-4 0-1.1 0.7-2.9 1.5-4 0.8-1.1 1.5-2.9 1.4-4 0-1.1 0.9-3.1 2-4.5 1.2-1.4 2.1-3.8 2.1-5.5 0-1.6 0.7-3.9 1.5-5 0.8-1.1 1.5-2.9 1.5-4-0.1-1.1 0.3-2.4 0.8-3 0.5-0.5 1.5-2.8 2.2-5 0.7-2.2 1.9-4.6 2.6-5.2 0.7-0.7 1.4-2.8 1.4-4.5 0-1.8 0.7-4.2 1.5-5.3 0.8-1.1 1.5-2.9 1.5-4 0-1.1 0.9-3.3 1.9-5 1.1-1.6 2.1-3.9 2.1-5 0-1.1 0.7-2.9 1.5-4 0.8-1.1 1.5-3.1 1.5-4.5 0-1.4 0.7-3.4 1.5-4.5 0.8-1.1 1.5-2.9 1.5-4 0-1.1 0.9-3.3 1.9-5 1.1-1.6 2.1-3.9 2.1-5 0-1.1 0.7-2.9 1.5-4 0.8-1.1 1.5-3.1 1.5-4.5 0-1.4 0.7-3.4 1.5-4.5 0.8-1.1 1.5-2.9 1.5-4 0-1.1 0.9-3.3 1.9-5 1.1-1.6 2.1-4.1 2.1-5.5 0-1.4 0.7-3.4 1.5-4.5 0.8-1.1 1.5-2.9 1.5-4 0-1.1 0.7-2.9 1.5-4 0.8-1.1 1.5-2.9 1.5-4 0-1.1 0.9-3.3 1.9-5 1.1-1.6 2.1-4.1 2.1-5.5 0-1.4 0.7-3.4 1.5-4.5 0.8-1.1 1.5-2.7 1.5-3.5-0.1-0.8 0.8-3.3 1.9-5.5 1.2-2.2 2.1-4.7 2.1-5.5 0-0.8 0.7-2.4 1.5-3.5 0.8-1.1 1.5-3.1 1.5-4.5 0-1.4 0.7-3.4 1.5-4.5 0.8-1.1 1.5-2.9 1.4-4 0-1.1 0.7-2.7 1.6-3.5 0.8-0.8 1.8-3.1 2.1-5 0.4-1.9 1.2-4.4 2-5.5 0.8-1.1 1.4-3.1 1.4-4.5 0-1.4 0.7-3.4 1.5-4.5 0.8-1.1 1.5-2.8 1.5-3.7 0-1 0.9-3 2-4.5 1.1-1.6 2-3.9 2-5.3 0-1.4 0.7-3.4 1.5-4.5 0.8-1.1 1.5-3.1 1.5-4.5 0-1.4 0.7-3.4 1.5-4.5 0.8-1.1 1.5-2.8 1.5-3.7 0-1 0.9-3 2-4.5 1.1-1.6 2-3.9 2-5.3 0-1.4 0.7-3.4 1.5-4.5 0.8-1.1 1.5-3.1 1.5-4.5 0-1.4 0.7-3.4 1.5-4.5 0.8-1.1 1.5-2.7 1.5-3.5 0-0.8 0.8-3.2 1.9-5.2 1.1-2.1 2.1-4.6 2.1-5.5 0-1 0.7-2.7 1.5-3.8 0.8-1.1 1.5-3 1.5-4.2 0-1.3 0.9-3.5 2-5 1.1-1.6 2-3.9 2-5.3 0-1.4 0.7-3.4 1.5-4.5 0.8-1.1 1.4-2.8 1.2-3.7-0.1-0.9 0.8-3.3 2.1-5.2zm51.7 102.3c0.1 1.7-0.6 4.1-1.4 5.2-0.8 1.1-1.5 3-1.5 4.2 0 1.2-0.9 3.5-2 5-1.1 1.5-2 4.1-2 5.8 0.1 1.6-0.4 3.4-1 4-0.6 0.5-1.4 2.8-1.9 5-0.5 2.2-1.6 6-2.5 8.5-0.9 2.4-2.2 5.7-3.1 7.2-0.8 1.5-1.5 3.8-1.5 5 0 1.2-0.7 3.2-1.5 4.3-0.8 1.1-1.5 2.9-1.5 4 0.1 1.1-0.8 3.8-1.9 6-1.2 2.2-2.1 4.6-2.1 5.5 0 0.8-0.7 2.4-1.5 3.5-0.8 1.1-1.5 3.3-1.5 5 0 1.6-0.7 3.9-1.5 5-0.8 1.1-1.5 3-1.5 4.2 0 1.2-0.9 3.5-2 5-1.1 1.5-2 4.1-2 5.8 0 1.6-0.7 3.9-1.5 5-0.8 1.1-1.5 3.1-1.5 4.5 0 1.3-0.7 3.4-1.5 4.5-0.8 1.1-1.5 3.1-1.5 4.5 0 1.3-0.9 3.8-1.9 5.5-1.1 1.6-2 3.3-2 3.7 0 0.4 0.6 1.4 1.5 2.3 1.2 1.2 7.8 1.5 46.3 1.5 34.5 0 45-0.3 46-1.3 0.6-0.7 1.2-2.1 1.2-3.2 0-1.1-0.7-2.9-1.5-4-0.8-1.1-1.5-3.2-1.5-4.5 0-1.4-0.7-3.4-1.5-4.5-0.8-1.1-1.5-3.4-1.5-5 0-1.7-0.9-4.3-2-5.8-1.1-1.5-2-3.8-2-5 0-1.2-0.7-3.1-1.5-4.2-0.8-1.1-1.5-3.4-1.5-5 0-1.7-0.7-3.9-1.5-5-0.8-1.1-1.5-3.2-1.5-4.5 0-1.4-0.9-3.8-2-5.3-1.1-1.5-2-4-2-5.5 0-1.5-0.7-3.6-1.5-4.7-0.8-1.1-1.5-3.5-1.5-5.3 0-1.8-0.7-3.9-1.5-4.7-0.9-0.9-1.5-2.3-1.5-3.3 0-1-0.9-3.5-2-5.7-1.2-2.2-2.1-4.9-2-6 0-1.1-0.7-2.9-1.5-4-0.8-1.1-1.5-3.1-1.5-4.3 0-1.2-0.7-3.5-1.5-5-0.9-1.5-2.2-4.8-3.1-7.2-0.9-2.5-2-6.3-2.5-8.5-0.5-2.2-1.3-4.5-1.9-5-0.6-0.6-1.1-2.3-1.1-3.8 0-1.5-0.6-3.4-1.4-4.2-0.9-0.9-2-1.5-2.5-1.5-0.5 0-1.6 0.7-2.5 1.5-1 0.9-1.7 3-1.7 4.8zm432.2-15.5c10.9 0.3 14 0.7 16.5 2.2 1.6 1.1 4.5 1.9 6.5 2 1.9 0 4.4 0.7 5.5 1.5 1.1 0.8 2.6 1.5 3.5 1.5 0.8 0 3 0.7 5 1.7 1.9 1 4.3 2.5 5.2 3.5 1 1 2.5 1.7 3.5 1.7 1 0 5.7 3.8 10.5 8.5 4.8 4.7 8.7 9.1 8.7 9.8 0 0.7 1.4 2.8 3.1 4.8 1.7 1.9 3.9 5.5 5 8 1.1 2.4 2.9 6.1 4 8.2 1.1 2.1 1.9 4.5 1.9 5.5 0 1 0.7 2.7 1.5 3.8 0.9 1.1 1.5 4.2 1.5 7.5 0 3 0.7 6.4 1.4 7.5 0.9 1.3 1.6 6.4 1.9 15.5 0.3 7.4 1 14.7 1.6 16.2 0.8 2 1.2 26.8 1.2 87.3 0 66.5-0.3 84.6-1.3 85.2-0.7 0.4-19.7 0.9-42.2 1.1-26.9 0.2-42.3-0.1-48.5-1.8l-0.1-90.8c0-88.9 0-90.8-1.9-93.7-1.1-1.7-2-3.9-2-5 0-1.1-1.7-4.6-3.8-7.7-2.4-3.7-5.9-7.1-9.7-9.7-3.3-2.3-6.7-4.1-7.5-4.1-0.9-0.1-2.4-0.8-3.5-1.6-1.4-1-4.4-1.5-9-1.5-4 0-8.7 0.7-10.8 1.5-2.1 0.9-5.3 1.6-7.2 1.6-2 0-5.5 0.9-7.8 2.1-2.3 1.2-7.7 5.6-11.9 9.8-4.2 4.2-8.4 9.2-9.3 11.3-0.8 2.1-2 3.8-2.5 3.8-0.6 0-1.3 1.2-1.7 2.7-0.4 1.5-1.3 3.7-2 4.8-0.8 1.1-1.4 3-1.4 4.2 0 1.2-0.5 3.3-1.2 4.5-0.6 1.2-1.7 7.2-2.4 13.3-0.7 6-1.7 13.7-2.2 17-0.6 3.3-1 35.8-1.1 138.5l-4.3 0.5c-2.3 0.3-21.8 0.4-43.2 0.3-21.5-0.2-39.6-0.7-40.3-1.1-1-0.6-1.3-29.2-1.3-274.2l3.8-0.8c2.1-0.4 21.1-0.7 42.3-0.7 21.1 0 39.5 0.2 40.7 0.5 2.2 0.5 2.3 0.6 2.3 17.5 0 15.2 0.1 17 1.7 17.6 1.3 0.5 2.7-0.5 5.3-3.4 1.9-2.2 6.6-6.9 10.5-10.4 3.9-3.5 9.7-8 12.9-10.1 3.2-2.1 6.5-3.7 7.2-3.7 0.7 0 2.1-0.9 3.1-2.1 1-1.1 2.4-2 3.1-2 0.7 0.1 2.5-0.5 4-1.3 1.5-0.7 4.1-2 5.9-3 1.8-0.9 4.3-1.6 5.5-1.6 1.2 0 3.4-0.8 4.8-1.8 1.9-1.3 5.2-1.9 14-2.2 6.3-0.3 17.5-0.4 25-0.2z"/>
	</g>
</svg>